/* XPM */
static char *f22d9487cdcf46b69d42669f4baa23dbCsh3alNiSznLaLqA[] = {
/* columns rows colors chars-per-pixel */
"47 50 209 2 ",
"   c None",
".  c #010101",
"X  c #060A0B",
"o  c #0A0909",
"O  c #060707",
"+  c #160606",
"@  c #130908",
"#  c #190F07",
"$  c #050D11",
"%  c #1A1D1D",
"&  c #111414",
"*  c #141414",
"=  c #211309",
"-  c #231C1B",
";  c #251212",
":  c #3A1617",
">  c #3E100F",
",  c #382519",
"<  c #191F20",
"1  c #261D29",
"2  c #192227",
"3  c #1E2C36",
"4  c #1E303D",
"5  c #262728",
"6  c #372A27",
"7  c #3B2D3E",
"8  c #362936",
"9  c #2E3333",
"0  c #2E373B",
"q  c #3B3C3B",
"w  c #35363A",
"e  c #5B1A1A",
"r  c #54341B",
"t  c #63381D",
"y  c #453329",
"u  c #593F2E",
"i  c #43373D",
"p  c #4D3438",
"a  c #74362A",
"s  c #653637",
"d  c #753D3D",
"f  c #773A38",
"g  c #6F332F",
"h  c #3B413E",
"j  c #50433A",
"k  c #47423D",
"l  c #644A36",
"z  c #6A503E",
"x  c #7B6822",
"c  c #1E3241",
"v  c #3D2F40",
"b  c #3F3040",
"n  c #363D41",
"m  c #283C4D",
"M  c #433141",
"N  c #4C3441",
"B  c #4B3D4F",
"V  c #543743",
"C  c #593843",
"Z  c #4D3F50",
"A  c #683D44",
"S  c #733F44",
"D  c #3B4242",
"F  c #354243",
"G  c #32495A",
"H  c #3A566B",
"J  c #304B60",
"K  c #3F627D",
"L  c #4B4644",
"P  c #584545",
"I  c #5A4854",
"U  c #6B4D4C",
"Y  c #664849",
"T  c #7B4343",
"R  c #744447",
"E  c #69554B",
"W  c #785849",
"Q  c #735552",
"!  c #7C5C55",
"~  c #755A5A",
"^  c #7A5D5C",
"/  c #6E5150",
"(  c #7D605E",
")  c #605868",
"_  c #725361",
"`  c #79656B",
"'  c #72687A",
"]  c #726F7B",
"[  c #823D3D",
"{  c #973D3B",
"}  c #902929",
"|  c #AB3A3B",
" . c #BD3636",
".. c #B73B37",
"X. c #C23636",
"o. c #C23A3C",
"O. c #94582B",
"+. c #A35328",
"@. c #C77C10",
"#. c #C3432C",
"$. c #8C4C4E",
"%. c #884444",
"&. c #964745",
"*. c #895A56",
"=. c #8A564A",
"-. c #AC4D46",
";. c #A74D46",
":. c #B14F46",
">. c #AF5049",
",. c #B1514A",
"<. c #BD584E",
"1. c #B05650",
"2. c #BA5B5B",
"3. c #B75151",
"4. c #896248",
"5. c #866858",
"6. c #96695B",
"7. c #8E705A",
"8. c #9B725C",
"9. c #A97D5E",
"0. c #9C6862",
"q. c #8A7362",
"w. c #8D6F6A",
"e. c #A16E66",
"r. c #B36F73",
"t. c #B67376",
"y. c #A87C65",
"u. c #C1474B",
"i. c #C75D52",
"p. c #CB655A",
"a. c #CC6054",
"s. c #DE6A5C",
"d. c #D6665A",
"f. c #E26D5E",
"g. c #E86F5F",
"h. c #C05A65",
"j. c #DF7063",
"k. c #E97060",
"l. c #E4786C",
"z. c #E07B72",
"x. c #AE880C",
"c. c #B38512",
"v. c #C99602",
"b. c #AC8368",
"n. c #BB8967",
"m. c #A88A78",
"M. c #C79775",
"N. c #D39D75",
"B. c #D59771",
"V. c #C5916F",
"C. c #E19E74",
"Z. c #DCA37B",
"A. c #E1A77E",
"S. c #406889",
"D. c #406480",
"F. c #7A7A8B",
"G. c #766E86",
"H. c #B37C85",
"J. c #87819B",
"K. c #B88C95",
"L. c #9897AA",
"P. c #8883A0",
"I. c #BE8DA3",
"U. c #B696A9",
"Y. c #A49AB8",
"T. c #B69DB3",
"R. c #B8AFB2",
"E. c #C89B88",
"W. c #C89295",
"Q. c #E18B86",
"!. c #D6A585",
"~. c #DDB398",
"^. c #CBA48E",
"/. c #E5B391",
"(. c #EBBA98",
"). c #E5B18C",
"_. c #C9A1AA",
"`. c #DBB8A3",
"'. c #E4BAA4",
"]. c #E8AAA9",
"[. c #EAC3AA",
"{. c #F1C6AA",
"}. c #F6CAAF",
"|. c #F5CDB4",
" X c #F9D1BA",
".X c #FDD5BB",
"XX c #A9A6C3",
"oX c #B7ADC9",
"OX c #BCADCA",
"+X c #B6B0CD",
"@X c #BBB4D3",
"#X c #B7B7D8",
"$X c #B8B9DA",
"%X c #B7B7D7",
"&X c #BBBFE1",
"*X c #C2BFD9",
"=X c #C1C1DE",
"-X c #DFD2DF",
";X c #E8C6CD",
":X c #E8C1C6",
">X c #EAD3D7",
",X c #D4D4EB",
"<X c #DDDCEC",
"1X c #DBD2E0",
"2X c #D3D2E9",
"3X c #E2DFED",
"4X c #E6DAE3",
"5X c #E8EAFA",
"6X c #EFE6EE",
/* pixels */
"                                                                                              ",
"                                                                                              ",
"                                                                                              ",
"                                                                                              ",
"                                                                                              ",
"                                                                                              ",
"                                  M M M M M M M M M M M                                       ",
"                            v v Y p.p.p.p.p.p.p.p.p.p.2.M v M                                 ",
"                          V A A $.k.k.k.k.k.k.k.k.k.k.d.R A C                                 ",
"                        v S :.s.k.k.k.k.k.k.k.k.k.k.k.k.k.p.;.V b                             ",
"                        v S ,.f.k.k.k.k.k.k.k.k.k.k.k.k.k.i.>.N M                             ",
"                        7 $.g.k.k.k.k.k.k.k.k.k.k.k.k.k.k.g.d.V v                             ",
"                        v $.k.k.k.k.k.k.g.g.k.k.k.k.k.k.k.k.f.V v                             ",
"                      i v $.k.k.k.k.k.k.g.g.g.g.g.k.k.k.k.k.j.V v M                           ",
"                    M i %.;.i.f.k.k.g.l.:X;X;X;X].g.g.g.k.d.<.&.S v                           ",
"                    8 i -.>.>.d.s.s.l.Q.5X3X1X5X;Xz.j.s.f.i.>.,.%.8                           ",
"                    . @ ;.>.>.>.,.:.U.*X5X_.1.4X<X@Xr.>.>.>.>.,.a .                           ",
"                    . @ ;.>.>.:.,.:.U.@XW.t.,.W._.#Xr.-.>.>.:.3.g .                           ",
"                    . + ;.-.>.1.1.,.U.oX1.1.1.>.t.$Xt.1.1.,.:.:.g .                           ",
"                    . O p S ,.U.oXoX%X%XoXoXoXoX+X#X+XoX+XH.-.C 6 .                           ",
"                  r # . 7 S ,.OX$X$X#X%X#X#X#X#X#X$X$X$X&XK.+.V 5 . , r                       ",
"                  = u W P Y S ' J.$X2X,X,X2X,X,X,X,X=XXXG._ A A R z , =                       ",
"                  . 4.B.W P 7 7 ) oX2X<X<X<X<X<X<X6X*XY.M M M I 6.Z., .                       ",
"                  . 4.B.i P U U / ~ ^ ~ B B B B I ^ ^ Q U U U M W C.6 .                       ",
"                  . l W w E 8.Q ! 8.Q P ! ! ! ! / P ` w.E 5.7.i j =.,                         ",
"                    . . 5 5.Z.4.7.Z.E k Z.Z.Z.Z.b.9 P.Y.Q b.N.L 5 .                           ",
"                        O z A.V.^.4XL < [.{.{.}.m.O L.4XV.N.N.- o                             ",
"                        . j 9.B.~.6X` j }.|. X.XK.6 R.4X!.n.8.#                               ",
"                            O b.)..X X|.|. X X|. X X X}.A.z .                                 ",
"                            . W b./.{..X X[./.|. X X(.!.8.y .                                 ",
"                          o O l 7.B.~.[.}./.Z.{.[.[.!.n.W 6 O                                 ",
"                        . % q x.c.Q L L Z.Z.Z.Z.b.h Y 4.v.x 0 O .                             ",
"                      s % 5 D x.@.&.` ] 7.7.7.7.q.] $.O.v.O.h 2 5                             ",
"                    T T L F h x.@.X.I.Y.M w w w ) @Xh.#.v.x h h k z                           ",
"                  d E.'.M.( h O.+.X.3.i.Y.] h L.H.3.u. .O.l D b.E.'.8.d                       ",
"                  d E. X(.q.5 r a |  .u.@XF.D Y.I.X...{ t y 9 N.(..X0.d                       ",
"                  S E..X.X7.. . ; T | u.@XF.n XXI.o.{ s . . o `..X.X6.d                       ",
"                    0.e.y.j . G m ; ; : b 5 & w 8 > ; 1 J 2 O *.e.e.*.                        ",
"                    d d S , . H J X X $ $ X O X $ $ X & D.4 . s f d                           ",
"                            . 9 F 0 H S.S.H D K S.S.G n F 2 .                                 ",
"                            . g [ [ 7 c c 3 % 4 c c s [ d e .                                 ",
"                            O }  . .> . . . . . . . }  . .e .                                 ",
"                              + + +                 + + @ +                                   ",
"                              . . .                   . .                                     ",
"                                                                                              ",
"                                                                                              ",
"                                                                                              ",
"                                                                                              ",
"                                                                                              ",
"                                                                                              "
};
