/* XPM */
static char *e79ab0947f81443ba6c762bdc5330cb9r6n2yepIGv8v1Pjx[] = {
/* columns rows colors chars-per-pixel */
"49 51 170 2 ",
"   c #653418",
".  c #B8976E",
"X  c #7B4E2F",
"o  c #8F6745",
"O  c #A47F5A",
"+  c #D1B78A",
"@  c #825637",
"#  c #9D7853",
"$  c #AC7F4C",
"%  c #A26E3B",
"&  c #C8A97A",
"*  c #A47440",
"=  c #CAAE7F",
"-  c #CEB385",
";  c #9E6934",
":  c #A87A47",
">  c #AF8451",
",  c #633317",
"<  c #603116",
"1  c #B2956E",
"2  c #96612C",
"3  c #9A642E",
"4  c #B78E5D",
"5  c #C4A374",
"6  c #B38958",
"7  c #B99363",
"8  c #BD9869",
"9  c #5E3E2C",
"0  c #776358",
"q  c #5E3B26",
"w  c #7F4E24",
"e  c #A0A0A0",
"r  c gray78",
"t  c #C0C0C0",
"y  c #969392",
"u  c #AD875A",
"i  c #DADADA",
"p  c white",
"a  c #CDCDCD",
"s  c #7B5534",
"d  c #93724F",
"f  c #8B6743",
"g  c #754620",
"h  c #835D38",
"j  c #683F24",
"k  c #5B2E15",
"l  c #7D512C",
"z  c #775032",
"x  c #946436",
"c  c #E7E7E7",
"v  c #6C5447",
"b  c #897F7A",
"n  c #6C462B",
"m  c #AB978D",
"M  c #F9F9F9",
"N  c gray66",
"B  c #76543D",
"V  c gray95",
"C  c gray88",
"Z  c #9A9A9A",
"A  c #6C594F",
"S  c gray53",
"D  c #E2E2E2",
"F  c gray77",
"G  c #58443A",
"H  c #606060",
"J  c gray57",
"K  c #797979",
"L  c gray39",
"P  c #8A776C",
"I  c #C1C1C1",
"U  c #C5C5C5",
"Y  c #815D43",
"T  c gray51",
"R  c #4C4C4C",
"E  c #64412F",
"W  c #785B4A",
"Q  c #6E4E3C",
"!  c #623718",
"~  c #AEAEAE",
"^  c gray81",
"/  c #4F2811",
"(  c #816658",
")  c #C3B9B4",
"_  c #6F4527",
"`  c #794C25",
"'  c #8C5A29",
"]  c #532C13",
"[  c #B18B5B",
"{  c #8F623C",
"}  c #502910",
"|  c #835225",
" . c #643319",
".. c #885527",
"X. c #73401E",
"o. c #814D24",
"O. c #A3835E",
"+. c #552B13",
"@. c #4F3120",
"#. c #4F2A14",
"$. c #5E3416",
"%. c #794B22",
"&. c #AE8556",
"*. c #4F3528",
"=. c #615A55",
"-. c gray50",
";. c gray63",
":. c gray54",
">. c #6B6563",
",. c #4F3B2F",
"<. c #593015",
"1. c #4D3F37",
"2. c #524B46",
"3. c #542E16",
"4. c #6C3F1D",
"5. c #4E3D32",
"6. c gray43",
"7. c #4D4541",
"8. c #915D2B",
"9. c #502C19",
"0. c gray70",
"q. c #A5A5A5",
"w. c LightGray",
"e. c #9F9F9F",
"r. c #CACACA",
"t. c #4D413A",
"y. c #4D433E",
"u. c #B7B7B7",
"i. c #B4B4B4",
"p. c #4D4A49",
"a. c #9B9B9B",
"s. c gray75",
"d. c #AFAFAF",
"f. c #959595",
"g. c #747474",
"h. c #515151",
"j. c gray83",
"k. c #4F3324",
"l. c #6A6A6A",
"z. c #DDDDDD",
"x. c #7E7E7E",
"c. c #565656",
"v. c #4F2E1D",
"b. c #4E372C",
"n. c #613217",
"m. c #71431D",
"M. c #684D3E",
"N. c #847871",
"B. c #634535",
"V. c #774F2F",
"C. c #593723",
"Z. c #5D3015",
"A. c #5C3115",
"S. c #B18D64",
"D. c #673C1A",
"F. c #805632",
"G. c #623417",
"H. c #683B1A",
"J. c #A98358",
"K. c #673F22",
"L. c #9E8A80",
"P. c gray93",
"I. c #D7D7D7",
"U. c gray34",
"Y. c #8A6951",
"T. c #938076",
"R. c #9F7347",
"E. c #CBC8C7",
"W. c #9C6D41",
"Q. c #B1A19A",
/* pixels */
"                                                                                                  ",
"    . . . . . . . . . X   X . . . . . . . . . X   X . . . . . . . . .     o . . . . . . . . O     ",
"    + + + + + + + + + @   @ + + + + + + + + + @   @ + + + + + + + + +     # + + + + + + + + .     ",
"    + $ % & + + + + + @   @ + * % = + + + + + @   @ - ; : - + + + + +     # & ; > + + + + + .     ",
", < 1 2 3 4 + + : + + @   @ 5 3 3 4 + = : + + @   @ 5 3 3 5 + 5 6 + +     # 4 3 3 + + 7 8 + .     ",
"9 0 0 q w 4 + & 3 5 + @   @ 5 3 3 4 + 5 3 = + @   @ 4 3 3 5 + 4 ; + +     # 4 3 3 + + > * + .     ",
"e r t y q u + 5 3 4 + @   @ 5 3 3 4 + 4 3 5 + @   @ 4 3 3 5 + 6 3 & +     # 6 3 3 + + : 3 + .     ",
"i p p a 0 s d f g h d j k j f g g h d h g h d j k j h g g f d l g f d k k z l g g d d x 3 + .     ",
"c p p c 0 v b b b b b b b b b b b b b b b b b b b b b b b b b b b b b b b b b b b b b n 3 = .     ",
"i p p i 0 m p p p p p p p p p p p p p p p p p p p p p p p p p p p p p p p p p p p M N B 3 5 .     ",
"e V C e 0 m p p p p p p p p p p p p p p p p p p p p p p p p p p p p p p p p p p p M N B 3 5 .     ",
"Z c a Z 0 A S S S S S S S S S S S S S S S S S S S S S S S S S S S S S S S S S S S S Z B 3 5 .     ",
"Z D F Z 0 G H H H H H H H H H H H H H H H H H H H H H H H H H H H H H H H H H H H H J B 3 5 .     ",
"K L L K 0 P I I I I I I I I I I I I I I I I I I I I I I I I I I I I I I I I I I I I U Y 3 5 .     ",
"T R R T P E W W W W W W W W W W W W W W W W W W W W W W W W W W W W W W W W W W W W Q ! 3 5 .     ",
"U ~ ~ ^ Q / / / / / / / / / / / / / / / / / / / / / / / / / / / / / / / / / / / / / / ! 3 5 .     ",
"( ) ) ( / s h g g l d j k j l g g h h g g l d j k j g g g f l g g h d k k _ g g g d ` ' 3 7 .     ",
"/ / / / ] [ 4 3 3 ; + @   @ % 3 3 4 > 3 3 : + @   @ 3 3 3 5 : 3 3 4 +     { 3 3 3 + 3 3 3 4 .     ",
"} / / ] | 4 6 3 3 3 + @   @ 3 3 3 4 : 3 3 : + @   @ 3 3 3 5 ; 3 3 4 +     { 3 3 3 + 3 3 3 4 .     ",
" .< ..2 3 4 : 3 3 3 + @   X.3 3 3 4 * 3 3 : + @   X.3 3 3 5 3 3 3 $ +     o.3 3 3 5 3 3 3 4 .     ",
"    3 3 3 4 : 3 3 3 + @   X.3 3 3 4 3 3 3 : + @   X.3 3 3 8 3 3 3 : +     o.3 3 3 5 3 3 3 4 .     ",
"    3 3 3 4 3 3 3 3 + @   X.3 3 3 4 3 3 3 : + @   X.3 3 3 4 3 3 3 : +     o.3 3 3 7 3 3 3 4 .     ",
"    3 3 3 4 3 3 3 3 + @   X.3 3 3 : 3 3 3 3 + @   X.3 3 3 6 3 3 3 : O.+./ @.#.$.%.&.3 3 3 4 .     ",
"    3 3 3 $ 3 3 3 3 + @   X.3 3 3 * 3 3 3 3 + @   X.3 3 3 * 3 3 2 $.*.=.-.;.:.>.,.<.' 3 3 4 .     ",
"    3 3 3 3 3 3 3 3 - @   X.3 3 3 3 3 3 3 3 + @   X.3 3 3 3 3 2 $.1.K t p p p i S 2.3.' 3 : .     ",
"    3 3 3 3 3 3 3 3 5 @   X.3 3 3 3 3 3 3 3 + @   X.3 3 3 3 3 4.5.6.Z M p p p p N S 7.$.3 : .     ",
"    3 3 3 3 3 3 3 3 5 @   X.3 3 3 3 3 3 3 3 + @   X.3 3 3 3 8.9.H 0.Z M p p p p N q.S *.w : .     ",
"    3 3 3 3 3 3 3 3 5 @   X.3 3 3 3 3 3 3 3 + @   X.3 3 3 3 %.,.q.0.Z t M p p w.Z e.r.t.4.: .     ",
"    3 3 3 3 3 3 3 3 5 @   X.3 3 3 3 3 3 3 3 + @   X.3 3 3 3 g y.I u.~ C w.i.N Z Z q.c p.! : .     ",
"    3 3 3 3 3 3 3 3 5 @   X.3 3 3 3 3 3 3 3 - @   X.3 3 3 3 g y.I a.s.p p Z Z Z J K c R ! : .     ",
"    3 3 3 3 3 3 3 3 5 @   X.3 3 3 3 3 3 3 3 5 @   X.3 3 3 3 g 5.d.I 6.N ~ f.S g.h.a.j.y.! : .     ",
"    3 3 3 3 3 3 3 3 5 @   X.3 3 3 3 3 3 3 3 5 @   X.3 3 3 3 ' k.g.c S R R R R R l.z.a.,.%.* .     ",
"    3 3 3 3 3 3 3 3 8 @   X.3 3 3 3 3 3 3 3 5 @   X.3 3 3 3 3 $.y.S z.I S g.x.d.c q.p.3.2 3 .     ",
"    3 3 3 3 3 3 3 3 4 @   X.3 3 3 3 3 3 3 3 5 @   X.3 3 3 3 3 ..9.p.c.J d.I u.a.H R @.%.3 3 .     ",
"    3 3 3 3 3 3 3 3 4 @   X.3 3 3 3 3 3 3 3 5 @   X.3 3 3 3 3 3 ] #.y.R R R R R 7.v./ 8.3 3 .     ",
"    3 3 3 3 3 3 3 3 4 @   X.3 3 3 3 3 3 3 3 5 @   X.3 3 3 3 3 3 4./ / 9.*.,.b.v./ / $.3 3 3 .     ",
"    3 3 3 3 3 3 3 3 4 @   X.3 3 3 3 3 3 3 3 5 @   X.3 3 3 3 3 3 8./ / / / / / / / / w 3 3 3 .     ",
"n.k %.8.3 3 3 3 3 3 4 @   X.3 3 3 3 3 3 3 3 8 @   X.3 3 3 3 3 3 3 m./ / / / / / / ! 3 3 3 3 .     ",
"M.N.N.B.w 3 3 3 3 3 4 @   X.3 3 3 3 3 3 3 3 4 @   X.3 3 3 3 3 3 3 3 V./ / / / / $.2 3 3 3 3 .     ",
"e a r e C.8.3 3 3 3 4 @   X.3 3 3 3 3 3 3 3 4 @   X.3 3 3 3 3 3 3 3 5 Z.+.A.! %.3 3 3 3 3 3 S.    ",
"i p p w.0 D.g g g g F.j k G.g g g g g g g g h j k G.g g g g g g g g f k k H.g g g g g ' 3 3 J.    ",
"c p p c 0 v b b b b b b b b b b b b b b b b b b b b b b b b b b b b b b b b b b b b N.K.3 3 J.    ",
"i p p a 0 L.c c c c c c c c c c c c c c c c c c c c c c c c c c c c c c c c c c c c N B 3 3 J.    ",
"e P.C Z 0 m p p p p p p p p p p p p p p p p p p p p p p p p p p p p p p p p p p p p ~ B 3 3 J.    ",
"Z c a Z 0 A S S S S S S S S S S S S S S S S S S S S S S S S S S S S S S S S S S S S Z B 3 3 J.    ",
"f.I.F Z 0 G H H H H H H H H H H H H H H H H H H H H H H H H H H H H H H H H H H H H J B 3 3 J.    ",
"g.L U.K 0 P I I I I I I I I I I I I I I I I I I I I I I I I I I I I I I I I I I I I U Y.3 3 J.    ",
"T h.h.S T.E W W W W W W W W W W W W W W W W W W W W W W W W W W W W W W W W W W W W W ! 3 3 R.    ",
"^ ~ 0.E.E / / / / / / / / / / / / / / / / / / / / / / / / / / / / / / / / / / / / / / ! 3 3 W.    ",
"W Q.Q.Q / 4.g g g g g j k G.g g g g g g g g l j k G.g g g g g g g g h k k H.g g g g g | 3 3 W.    ",
"/ / / / ] 2 3 3 3 3 3 @   X.3 3 3 3 3 3 3 3 : @   X.3 3 3 3 3 3 3 3 :     o.3 3 3 3 3 3 3 3 W.    "
};
