/* XPM */
static char *_0bc632dd25d48918267feb858109de2l0BET7OqTwiuXz0o[] = {
/* columns rows colors chars-per-pixel */
"57 57 15 1 ",
"  c None",
". c black",
"X c #503018",
"o c #403040",
"O c #384040",
"+ c #784040",
"@ c #C03838",
"# c #885028",
"$ c #882840",
"% c #B05048",
"& c #E87060",
"* c #C89800",
"= c #D8A078",
"- c #406888",
"; c #F8D0B8",
/* pixels */
"                                                         ",
"                                                         ",
"                                                         ",
"                                                         ",
"                                                         ",
"                                                         ",
"                                                         ",
"                    oooooooooooooo                       ",
"                    oooooooooooooo                       ",
"                oooo&&&&&&&&&&&&&&oooo                   ",
"                oooo&&&&&&&&&&&&&&oooo                   ",
"              oo%%&&&&&&&&&&&&&&&&&&%%oo                 ",
"              oo%%&&&&&&&&&&&&&&&&&&%%oo                 ",
"              oo&&&&&&&&&&&&&&&&&&&&&&oo                 ",
"              oo&&&&&&&&&&&&&&&&&&&&&&oo                 ",
"            oo%%&&&&&&&&&&&&&&&&&&&&&&%%oo               ",
"            oo%%&&&&&&&&&&&&&&&&&&&&&&%%oo               ",
"            oo%%&&&&&&&&&&&&&&&&&&&&&&%%oo               ",
"            oo%%&&&&&&&&&&&&&&&&&&&&&&%%oo               ",
"            oo%%%%&&&&&&&&&&&&&&&&&&%%%%oo               ",
"            oo%%%%&&&&&&&&&&&&&&&&&&%%%%oo               ",
"            oo%%%%%%%%&&&&&&&&&&%%%%%%%%oo               ",
"            oo%%%%%%%%&&&&&&&&&&%%%%%%%%oo               ",
"          XXoooo%%%%%%%%OOOOOO%%%%%%%%ooooXX             ",
"          XXoooo%%%%%%%%OOOOOO%%%%%%%%ooooXX             ",
"          ..==oo%%%%%%OOOOOOOOOO%%%%%%oo==..             ",
"          ..==oo%%%%%%OOOOOOOOOO%%%%%%oo==..             ",
"          ..==XXoooo%%%%%%%%%%%%%%ooooXX==..             ",
"          ..==XXoooo%%%%%%%%%%%%%%ooooXX==..             ",
"            ..XX##XXooooooooooooooXX##XX..               ",
"            ..XX##XXooooooooooooooXX##XX..               ",
"              ..XX##################XX..                 ",
"              ..XX##################XX..                 ",
"                ..XX##############XX..                   ",
"                ..XX##############XX..                   ",
"                OO....XX######XX....OO                   ",
"                OO....XX######XX....OO                   ",
"              ..OOOO**XXXXXXXXXX**OOOO..                 ",
"              ..OOOO**XXXXXXXXXX**OOOO..                 ",
"            ..OOOO$$**..******..**$$OOOO..               ",
"            ..OOOO$$**..******..**$$OOOO..               ",
"          ++;;==..@@..**********..@@..==;;++             ",
"          ++;;==..@@..**********..@@..==;;++             ",
"          ++;;;;..$$XX##******##XX$$..;;;;++             ",
"          ++;;;;..$$XX##******##XX$$..;;;;++             ",
"            ++++OO--XX**######**XX--OO++++               ",
"            ++++OO--XX**######**XX--OO++++               ",
"                ..OO--..******..--OO..                   ",
"                ..OO--..******..--OO..                   ",
"                ..@@@@OOOOOOOOOO@@@@..                   ",
"                ..@@@@OOOOOOOOOO@@@@..                   ",
"                  ....          ....                     ",
"                  ....          ....                     ",
"                                                         ",
"                                                         ",
"                                                         ",
"                                                         "
};
